<svg id="Layer_1" data-name="Layer 1" xmlns="http://www.w3.org/2000/svg" xmlns:xlink="http://www.w3.org/1999/xlink" viewBox="0 0 280 300"><defs><style>.cls-1{fill:#fff;}.cls-2{mask:url(#mask);}.cls-3{fill:#1b75bc;}.cls-4{mask:url(#mask-2-2);}.cls-5{mask:url(#mask-3);}.cls-6{mask:url(#mask-4-2);}.cls-7{fill:none;stroke:#fff;stroke-width:1.02px;}.cls-8{mask:url(#mask-5);}</style><mask id="mask" x="103.4" y="137.44" width="116.78" height="26.99" maskUnits="userSpaceOnUse"><g id="mask-2"><path id="path-1" class="cls-1" d="M121.8,154a9.77,9.77,0,0,1-.56,3.35,7.43,7.43,0,0,1-1.65,2.65,7.24,7.24,0,0,1-2.56,1.69,9.09,9.09,0,0,1-3.35.59,8.75,8.75,0,0,1-3.33-.6,7.2,7.2,0,0,1-2.56-1.71,7.46,7.46,0,0,1-1.64-2.62,10.33,10.33,0,0,1,0-6.74,7.13,7.13,0,0,1,4.19-4.31,9.09,9.09,0,0,1,3.33-.59,9,9,0,0,1,3.35.6,7.35,7.35,0,0,1,2.58,1.7,7.25,7.25,0,0,1,1.63,2.63A9.48,9.48,0,0,1,121.8,154Zm-4.08,0a6.09,6.09,0,0,0-1.1-3.88,3.54,3.54,0,0,0-2.94-1.39,3.62,3.62,0,0,0-2.11.62,3.94,3.94,0,0,0-1.4,1.83,7.37,7.37,0,0,0-.49,2.82,7.48,7.48,0,0,0,.48,2.79,4.14,4.14,0,0,0,1.39,1.83,3.62,3.62,0,0,0,2.13.63,3.55,3.55,0,0,0,2.94-1.4A6.08,6.08,0,0,0,117.72,154ZM128,142v6.23a9.12,9.12,0,0,1,2.34-1.83,6.13,6.13,0,0,1,3-.64,6.24,6.24,0,0,1,5.93,3.76,10.29,10.29,0,0,1,.84,4.33,11.74,11.74,0,0,1-.47,3.4,8.18,8.18,0,0,1-1.37,2.68,6.13,6.13,0,0,1-2.17,1.75,6.36,6.36,0,0,1-2.81.62,6.68,6.68,0,0,1-1.76-.23,5.25,5.25,0,0,1-1.41-.58,6.41,6.41,0,0,1-1-.76c-.28-.26-.64-.65-1.09-1.16v.4a2.44,2.44,0,0,1-.55,1.74,1.83,1.83,0,0,1-1.4.59,1.77,1.77,0,0,1-1.38-.59,2.58,2.58,0,0,1-.51-1.74V142.13a2.92,2.92,0,0,1,.5-1.87,1.66,1.66,0,0,1,1.39-.64,1.77,1.77,0,0,1,1.45.61A2.58,2.58,0,0,1,128,142Zm.19,12.1a5.6,5.6,0,0,0,1.11,3.74,3.65,3.65,0,0,0,2.92,1.31,3.34,3.34,0,0,0,2.64-1.34,5.82,5.82,0,0,0,1.11-3.82,7.49,7.49,0,0,0-.46-2.78,4,4,0,0,0-1.31-1.8,3.25,3.25,0,0,0-2-.63,3.57,3.57,0,0,0-2.08.63,4.34,4.34,0,0,0-1.43,1.84A7.08,7.08,0,0,0,128.23,154.05ZM146.7,148v11.77a2.62,2.62,0,0,1-.58,1.85,1.93,1.93,0,0,1-1.48.63,1.83,1.83,0,0,1-1.45-.64,2.73,2.73,0,0,1-.56-1.84V148.12a2.65,2.65,0,0,1,.56-1.83,1.9,1.9,0,0,1,1.45-.61,2,2,0,0,1,1.48.61A2.38,2.38,0,0,1,146.7,148Zm-2-4.21a2.12,2.12,0,0,1-1.45-.53,1.81,1.81,0,0,1-.61-1.47,1.85,1.85,0,0,1,.62-1.43,2.09,2.09,0,0,1,1.44-.56,2.12,2.12,0,0,1,1.4.51,1.81,1.81,0,0,1,.61,1.48,1.87,1.87,0,0,1-.59,1.47A2.08,2.08,0,0,1,144.69,143.79Zm10.23-1.48V150l8.69-9.07a7.05,7.05,0,0,1,1.07-1,2,2,0,0,1,1.17-.32,2.16,2.16,0,0,1,1.54.56,1.84,1.84,0,0,1,.59,1.37,2.69,2.69,0,0,1-1,1.92l-5.38,5.11,6.2,8.89a10.4,10.4,0,0,1,1,1.62,3.18,3.18,0,0,1,.33,1.35,1.69,1.69,0,0,1-.57,1.27,2.18,2.18,0,0,1-1.56.54,2.56,2.56,0,0,1-1.5-.4,3.33,3.33,0,0,1-1-1c-.27-.44-.51-.83-.71-1.19l-5.24-8.06L154.92,155v4.52a2.85,2.85,0,0,1-.63,2,2.09,2.09,0,0,1-1.61.67,2.19,2.19,0,0,1-1.09-.3,2.14,2.14,0,0,1-.8-.81,2.56,2.56,0,0,1-.26-1c0-.36,0-.9,0-1.59V142.31a3,3,0,0,1,.59-2,2,2,0,0,1,1.6-.67,2.08,2.08,0,0,1,1.62.67A2.87,2.87,0,0,1,154.92,142.31Zm19.67,5.91,2.65,9.1,2.41-8.46c.26-.88.45-1.49.58-1.81a2.36,2.36,0,0,1,.7-.93,2.5,2.5,0,0,1,2.83,0,2.49,2.49,0,0,1,.73,1c.14.34.33.94.58,1.78l2.41,8.46,2.69-9.1c.18-.66.32-1.13.43-1.43a1.86,1.86,0,0,1,.55-.77,1.63,1.63,0,0,1,1.12-.34,1.78,1.78,0,0,1,1.27.51,1.62,1.62,0,0,1,.53,1.19,6.18,6.18,0,0,1-.46,1.9L190.29,159c-.29.83-.52,1.42-.67,1.79a2.64,2.64,0,0,1-.76,1,2.52,2.52,0,0,1-2.86,0,2.74,2.74,0,0,1-.78-1.14c-.17-.45-.36-1-.56-1.74L182.34,151l-2.25,7.94a9.93,9.93,0,0,1-1,2.5,2,2,0,0,1-1.84.84,2.4,2.4,0,0,1-1.14-.26,2.23,2.23,0,0,1-.78-.75,5.35,5.35,0,0,1-.55-1.15c-.16-.44-.28-.79-.37-1.05l-3.3-9.76a6.85,6.85,0,0,1-.49-1.9,1.64,1.64,0,0,1,.52-1.18,1.78,1.78,0,0,1,1.28-.52,1.49,1.49,0,0,1,1.38.58A8.83,8.83,0,0,1,174.59,148.22Zm25.63-.22v11.77a2.62,2.62,0,0,1-.59,1.85,1.89,1.89,0,0,1-1.47.63,1.81,1.81,0,0,1-1.45-.64,2.68,2.68,0,0,1-.56-1.84V148.12a2.6,2.6,0,0,1,.56-1.83,1.89,1.89,0,0,1,1.45-.61,1.94,1.94,0,0,1,1.47.61A2.38,2.38,0,0,1,200.22,148Zm-2-4.21a2.14,2.14,0,0,1-1.45-.53,2,2,0,0,1,0-2.9,2.12,2.12,0,0,1,1.44-.56,2.15,2.15,0,0,1,1.41.51,1.84,1.84,0,0,1,.61,1.48,1.88,1.88,0,0,1-.6,1.47A2.08,2.08,0,0,1,198.2,143.79Zm15.63,16.59-3.59-5.91L208,156.56v3.24a2.52,2.52,0,0,1-.62,1.82,1.94,1.94,0,0,1-1.42.63,1.84,1.84,0,0,1-1.48-.63,2.74,2.74,0,0,1-.53-1.85V142.4a3.44,3.44,0,0,1,.52-2.07,1.73,1.73,0,0,1,1.49-.71,1.9,1.9,0,0,1,1.49.64,2.83,2.83,0,0,1,.55,1.9V152l4.58-4.81a11.15,11.15,0,0,1,1.3-1.22,1.91,1.91,0,0,1,2.35.16,1.6,1.6,0,0,1,.51,1.21c0,.6-.55,1.4-1.66,2.39l-2.16,2,4.18,6.56c.31.49.53.86.66,1.12a1.57,1.57,0,0,1,.2.72,2.1,2.1,0,0,1-.53,1.53,1.82,1.82,0,0,1-1.39.56,1.55,1.55,0,0,1-1.15-.4A9.85,9.85,0,0,1,213.83,160.38Z"/></g></mask><mask id="mask-2-2" x="59.82" y="129.08" width="50.64" height="37.96" maskUnits="userSpaceOnUse"><g id="mask-4"><path id="path-3" class="cls-1" d="M62,138.84a2.63,2.63,0,0,1,.69-1.52,3.56,3.56,0,0,1,2-.78L97,131.29a1.51,1.51,0,0,1,.91.1.85.85,0,0,1,.53.67,5.52,5.52,0,0,1,0,1.45,16.21,16.21,0,0,1,2.86,0c.25.11.83.33,1,.86a6.2,6.2,0,0,1,.16,1.7l-.33,5.5c2.82-.57,4.43-.86,4.84-.86.61,0,.88.54,1.14,1.3a5,5,0,0,1-.23,3.3,5.28,5.28,0,0,1-2.66,2,32.7,32.7,0,0,1-3.91,1L100,160.84a3.56,3.56,0,0,1-.36,1.26,1.45,1.45,0,0,1-.83.71,19.24,19.24,0,0,1-2.84,0A6.56,6.56,0,0,1,95.5,164c-.28.52-.63.86-1,.86h-31a1.35,1.35,0,0,1-1.12-.43,1.86,1.86,0,0,1-.4-1.08Z"/></g></mask><mask id="mask-3" x="61.1" y="128.51" width="33.89" height="36.2" maskUnits="userSpaceOnUse"><g id="mask-6"><path id="path-5" class="cls-1" d="M63.51,159.52,78.27,132a2.07,2.07,0,0,1,2-1.25c1.32,0,1.61.72,1.61,1.25v15.44L81,151.1q7-13.5,7.55-14.21a2.24,2.24,0,0,1,2.23-1.06,2,2,0,0,1,2,1.69v19.31a2.21,2.21,0,0,1-2.24,1.91A2.6,2.6,0,0,1,88,156.83a90.21,90.21,0,0,1,0-9.44l-5.64,10.79A2.9,2.9,0,0,1,79.77,160a2.25,2.25,0,0,1-2.33-1.86q-.18-.72,0-16.68-10.2,20-10.58,20.34a2.06,2.06,0,0,1-3.35-2.32Z"/></g></mask><mask id="mask-4-2" x="101.02" y="140.59" width="7.02" height="7" maskUnits="userSpaceOnUse"><g id="mask-8"><path id="path-7" class="cls-1" d="M104.53,145.41a1.32,1.32,0,1,1,1.31-1.32A1.32,1.32,0,0,1,104.53,145.41Z"/></g></mask><mask id="mask-5" x="93.81" y="131.69" width="8.57" height="30.89" maskUnits="userSpaceOnUse"><g id="mask-10"><path id="path-9" class="cls-1" d="M96,160.4l2.65-26.52a2.88,2.88,0,0,1,1,.61,1.86,1.86,0,0,1,.49.82l-2.41,24a.89.89,0,0,1-.45.74A2.29,2.29,0,0,1,96,160.4Z"/></g></mask></defs><title>Mobikwik Logo</title><g id="Group-3"><g class="cls-2"><polygon id="Fill-1" class="cls-3" points="103.4 164.43 220.18 164.43 220.18 137.44 103.4 137.44 103.4 164.43"/></g></g><g id="Group-6"><g class="cls-4"><polygon id="Fill-4" class="cls-3" points="59.82 167.04 110.46 167.04 110.46 129.09 59.82 129.09 59.82 167.04"/></g></g><g id="Group-9"><g class="cls-5"><polygon id="Fill-7" class="cls-1" points="61.09 164.71 94.98 164.71 94.98 128.51 61.09 128.51 61.09 164.71"/></g></g><path class="cls-3" d="M65.38,162.74a2.35,2.35,0,0,1-1.32-.44,2.14,2.14,0,0,1-.74-2.85v0l14.76-27.57a2.28,2.28,0,0,1,2.14-1.36c1.69,0,1.82,1.12,1.82,1.46v15.49l-.49,2.18c4.28-8.19,6.52-12.39,6.84-12.85a2.46,2.46,0,0,1,2.4-1.15,2.14,2.14,0,0,1,2.2,1.9v19.31A2.41,2.41,0,0,1,90.55,159a2.81,2.81,0,0,1-2.76-2.09,80.56,80.56,0,0,1,0-8.59l-5.23,10a3.12,3.12,0,0,1-2.77,2,2.41,2.41,0,0,1-2.52-2c0-.19-.19-.74,0-15.87C67.4,161.6,67.12,161.88,67,162A2.37,2.37,0,0,1,65.38,162.74ZM63.7,159.6a1.76,1.76,0,0,0,.59,2.36,1.78,1.78,0,0,0,2.43-.26c.2-.24,2.19-3.95,10.54-20.29l.39.09c-.16,13.17-.09,16.31,0,16.63a2,2,0,0,0,2.13,1.7,2.69,2.69,0,0,0,2.4-1.74l5.64-10.79.39.1c-.14,5.54-.14,8.7,0,9.39a2.39,2.39,0,0,0,2.36,1.75,2,2,0,0,0,2-1.71V137.52a1.75,1.75,0,0,0-1.8-1.49,2,2,0,0,0-2.06,1c-.33.46-2.86,5.23-7.54,14.19l-.38-.14.83-3.69V132c0-.39-.18-1-1.41-1A1.87,1.87,0,0,0,78.45,132Z"/><g id="Group-14"><g class="cls-6"><polygon id="Fill-12" class="cls-3" points="101.02 147.59 108.04 147.59 108.04 140.59 101.02 140.59 101.02 147.59"/></g></g><path id="Stroke-15" class="cls-7" d="M104.53,145.41a1.32,1.32,0,1,0-1.32-1.32A1.32,1.32,0,0,0,104.53,145.41Z"/><g id="Group-19"><g class="cls-8"><polygon id="Fill-17" class="cls-1" points="93.81 162.59 102.38 162.59 102.38 131.69 93.81 131.69 93.81 162.59"/></g></g></svg>